# xmcd
#
# Track frame offsets: 
#        150
#        14093
#        36125
#        52791
#        73141
#        91844
#        115167
#        132125
#        140418
#        142853
#        158394
#
# Disc length: 2419 seconds
#
# Revision: 0
# Processed by: cddbd v1.5.2PL0 Copyright (c) Steve Scherf et al.
# Submitted via: ExactAudioCopyFreeDBPlugin 1.0
#
DISCID=8909710b
DTITLE=Earth, Wind and Fire - Open Our Eyes (2015 AF)
DYEAR=1974
DGENRE=Soul
TTITLE0=Mighty Mighty
TTITLE1=Devotion
TTITLE2=Fair But So Uncool
TTITLE3=Feelin' Blue
TTITLE4=Kalimba Story
TTITLE5=Drum Song
TTITLE6=Tee Nine Chee Bit
TTITLE7=Spasmodic Movements
TTITLE8=Rabbit Seed
TTITLE9=Caribou
TTITLE10=Open Our Eyes
EXTD=
EXTT0=
EXTT1=
EXTT2=
EXTT3=
EXTT4=
EXTT5=
EXTT6=
EXTT7=
EXTT8=
EXTT9=
EXTT10=
PLAYORDER=
